<svg xmlns="http://www.w3.org/2000/svg" width="512" height="512" viewBox="0 0 512 512" role="img" aria-label="Operator-network motif for the TouchDesigner integration" data-host-policy-reference="touchdesigner">
  <rect width="512" height="512" rx="92" fill="#081426"/>
  <g fill="none" stroke-linecap="round" stroke-linejoin="round">
    <path d="M106 178h62c26 0 26 42 52 42h70c26 0 26-42 52-42h64" stroke="#16B9E6" stroke-width="16"/>
    <path d="M106 334h62c26 0 26-42 52-42h70c26 0 26 42 52 42h64" stroke="#0A74DA" stroke-width="16"/>
    <rect x="64" y="132" width="86" height="92" rx="20" fill="#0B1F45" stroke="#16B9E6" stroke-width="10"/>
    <rect x="210" y="184" width="92" height="144" rx="22" fill="#0B1F45" stroke="#149C9C" stroke-width="10"/>
    <rect x="362" y="288" width="86" height="92" rx="20" fill="#0B1F45" stroke="#0A74DA" stroke-width="10"/>
    <circle cx="150" cy="178" r="13" fill="#FFFFFF" stroke="#16B9E6" stroke-width="8"/>
    <circle cx="210" cy="220" r="13" fill="#FFFFFF" stroke="#16B9E6" stroke-width="8"/>
    <circle cx="302" cy="220" r="13" fill="#FFFFFF" stroke="#149C9C" stroke-width="8"/>
    <circle cx="362" cy="334" r="13" fill="#FFFFFF" stroke="#0A74DA" stroke-width="8"/>
    <path d="M232 274c14-34 34-34 48 0-14-12-34-12-48 0z" fill="#16B9E6" fill-opacity=".3" stroke="#16B9E6" stroke-width="8"/>
  </g>
</svg>
